<svg width="343" height="334" viewBox="0 0 343 334" fill="none" xmlns="http://www.w3.org/2000/svg">
<path d="M277.735 116.173C220.556 133.327 163.845 67.3245 202.535 26.5687C219.222 8.99098 246.854 6.30027 270.147 15.5348C323.943 36.8647 326.832 101.452 277.735 116.173Z" fill="#FAC663" fill-opacity="0.15"/>
<path d="M233.326 147.382C276.123 102.301 365.351 161.344 337.255 216.099C324.452 241.044 289.659 250.2 257.796 233.501C222.075 214.793 209.267 172.726 233.326 147.382Z" fill="#FAC663" fill-opacity="0.15"/>
<path d="M86.3008 29.8514C82.085 37.7521 72.6496 49.9199 61.7694 61.703C50.2781 74.1676 37.1793 86.2043 26.972 92.3477C-0.635677 108.903 -14.5585 153.874 23.244 176.994C58.1944 198.363 77.7261 174.474 110.27 195.335C143.146 216.435 176.193 208.519 194.213 187.434C210.888 167.918 214.683 137.12 193.507 107.643C170.934 76.2392 193.748 55.5536 170.592 21.7791C145.538 -14.8195 101.371 1.56372 86.3008 29.8514Z" fill="#FAC663" fill-opacity="0.15"/>
<path d="M158.003 226.721C170.108 213.97 187.898 210.036 204.989 214.691C255.807 228.539 274.176 302.466 232 326.918C178.674 357.862 115.23 271.778 158.003 226.721Z" fill="#FAC663" fill-opacity="0.15"/>
<path d="M87.1596 198.208C136.254 217.294 146.865 292.6 102.17 312.47C48.3335 336.406 -5.72185 251.993 35.4794 208.592C48.7018 194.663 68.4974 190.952 87.1596 198.208Z" fill="#FAC663" fill-opacity="0.15"/>
</svg>
